# xmcd
#
# Track frame offsets:
#	150
#	13907
#	28701
#	43370
#	60090
#	74682
#	87536
#	101669
#	113653
#	128118
#	144803
#	162179
#	177513
#	190092
#	203264
#	218917
#	232678
#	246483
#	265187
#	280582
#
# Disc length: 3904 seconds
#
# Revision: 0
# Processed by: cddbd v1.5.1PL0 Copyright (c) Steve Scherf et al.
# Submitted via: EasyCDDAExtractor 8.1.2.3
#
DISCID=180f3e14
DTITLE=Various Artist - Country - Gala
DYEAR=2002
DGENRE=Country
TTITLE0=Truck Stop - Bitte Erlöse uns, Elvis
TTITLE1=Sherrié Austin - Jolene
TTITLE2=Tom Astor - Ich will zurück zu mir
TTITLE3=Linda Feller - Tanzen mit dem Wind
TTITLE4=Guntter Gabriel - Bye, Bye Deutsche Mark (Radio Edit)
TTITLE5=The Bellamy Brothers - Let Your Love Flow (Remake '91)
TTITLE6=Muck - Die richtige Frau (Single Version)
TTITLE7=Nashville Music Company - Es gibt keine Kur gregen dich
TTITLE8=Teresa - Brave New Girls (Cady's Song)
TTITLE9=Linda Feller and Muck - We've  Got Tonight
TTITLE10=Schürzenjäger - Treff' ma uns in der mitte'n
TTITLE11=Gunter Gabriel - Medley: Er ist ein Kerl (Der 30 - Tonner Diesel - He
TTITLE11=y Boss, ich brauch mehr Geld/Komm unter meine Decke)
TTITLE12=John Brack - Crusin' Down the Highway Feelin'
TTITLE13=Linda Feller - Wenn überhaupt
TTITLE14=Muck - Es ist so leicht dich zu lieben
TTITLE15=Truck Stop - Damenwahl ((Jetzt geht's los) Bluegrass Version)
TTITLE16=Tom Astor - Rocky Mountain Man
TTITLE17=Asley Jay - Make It Hurt
TTITLE18=Joe Hodkins Boss Band - Nimm dir Zeit für deine Freunde
TTITLE19=Gudrun Lange - Ich hab es gern (Top Of The World)
EXTD=
EXTT0=
EXTT1=
EXTT2=
EXTT3=
EXTT4=
EXTT5=
EXTT6=
EXTT7=
EXTT8=
EXTT9=
EXTT10=
EXTT11=
EXTT12=
EXTT13=
EXTT14=
EXTT15=
EXTT16=
EXTT17=
EXTT18=
EXTT19=
PLAYORDER=
